<svg width="960" height="760" viewBox="0 0 960 760" fill="none" xmlns="http://www.w3.org/2000/svg">
  <defs>
    <linearGradient id="bg" x1="112" y1="54" x2="853" y2="716" gradientUnits="userSpaceOnUse">
      <stop stop-color="#F7E9FF"/>
      <stop offset="0.5" stop-color="#EEF4FF"/>
      <stop offset="1" stop-color="#E5FFF5"/>
    </linearGradient>
    <linearGradient id="card" x1="197" y1="110" x2="769" y2="617" gradientUnits="userSpaceOnUse">
      <stop stop-color="#FFFFFF"/>
      <stop offset="1" stop-color="#F8FBFF"/>
    </linearGradient>
    <linearGradient id="accent" x1="0" y1="0" x2="1" y2="1">
      <stop stop-color="#7B61FF"/>
      <stop offset="1" stop-color="#3CB7FF"/>
    </linearGradient>
    <filter id="shadow" x="120" y="74" width="720" height="580" filterUnits="userSpaceOnUse" color-interpolation-filters="sRGB">
      <feDropShadow dx="0" dy="24" stdDeviation="28" flood-color="#4C3F8D" flood-opacity="0.18"/>
    </filter>
  </defs>
  <rect width="960" height="760" rx="40" fill="url(#bg)"/>
  <circle cx="142" cy="142" r="80" fill="#FFFFFF" fill-opacity="0.56"/>
  <circle cx="838" cy="98" r="56" fill="#FFFFFF" fill-opacity="0.46"/>
  <circle cx="780" cy="648" r="92" fill="#FFFFFF" fill-opacity="0.38"/>
  <g filter="url(#shadow)">
    <rect x="160" y="114" width="640" height="500" rx="34" fill="url(#card)"/>
  </g>
  <rect x="206" y="152" width="548" height="56" rx="20" fill="#EDF3FF"/>
  <rect x="232" y="170" width="118" height="20" rx="10" fill="url(#accent)"/>
  <rect x="598" y="168" width="130" height="24" rx="12" fill="#DCE7FF"/>
  <rect x="210" y="236" width="260" height="172" rx="28" fill="#101828"/>
  <rect x="492" y="236" width="258" height="172" rx="28" fill="#F4F8FF"/>
  <rect x="210" y="430" width="540" height="142" rx="28" fill="#FAFCFF"/>
  <circle cx="260" cy="290" r="40" fill="#F5D7C2"/>
  <path d="M223 349C237 319 276 306 311 315C339 323 360 346 362 377H223V349Z" fill="#C58B7C"/>
  <path d="M235 283C240 248 265 220 304 219C341 218 372 244 374 283C360 293 333 302 300 302C270 302 245 295 235 283Z" fill="#281E3D"/>
  <rect x="412" y="261" width="18" height="88" rx="9" fill="#7C66FF"/>
  <rect x="440" y="284" width="18" height="65" rx="9" fill="#30B4FF"/>
  <rect x="620" y="268" width="92" height="14" rx="7" fill="#BFD1FF"/>
  <rect x="620" y="296" width="78" height="14" rx="7" fill="#BFD1FF"/>
  <rect x="620" y="324" width="102" height="14" rx="7" fill="#BFD1FF"/>
  <rect x="524" y="474" width="200" height="16" rx="8" fill="#CBD8F8"/>
  <rect x="524" y="506" width="152" height="16" rx="8" fill="#CBD8F8"/>
  <rect x="524" y="538" width="178" height="16" rx="8" fill="#CBD8F8"/>
  <rect x="236" y="462" width="250" height="78" rx="22" fill="url(#accent)"/>
  <rect x="258" y="484" width="94" height="12" rx="6" fill="white" fill-opacity="0.9"/>
  <rect x="258" y="508" width="160" height="12" rx="6" fill="white" fill-opacity="0.64"/>
  <rect x="258" y="532" width="120" height="12" rx="6" fill="white" fill-opacity="0.64"/>
  <rect x="602" y="120" width="182" height="74" rx="24" fill="white"/>
  <rect x="626" y="142" width="52" height="12" rx="6" fill="#C3D2FF"/>
  <rect x="626" y="164" width="122" height="12" rx="6" fill="#E0EAFF"/>
  <circle cx="720" cy="157" r="18" fill="#DFF8E8"/>
  <path d="M713 157L718 162L728 151" stroke="#18A760" stroke-width="4" stroke-linecap="round" stroke-linejoin="round"/>
</svg>
