<svg width="720" height="520" viewBox="0 0 720 520" fill="none" xmlns="http://www.w3.org/2000/svg">
  <defs>
    <linearGradient id="bg" x1="60" y1="56" x2="645" y2="466" gradientUnits="userSpaceOnUse">
      <stop stop-color="#F8FBFF"/>
      <stop offset="1" stop-color="#F5EEFF"/>
    </linearGradient>
    <linearGradient id="purple" x1="120" y1="120" x2="520" y2="420" gradientUnits="userSpaceOnUse">
      <stop stop-color="#7F5BFF"/>
      <stop offset="1" stop-color="#B06BFF"/>
    </linearGradient>
  </defs>
  <rect width="720" height="520" rx="36" fill="url(#bg)"/>
  <rect x="88" y="76" width="544" height="368" rx="28" fill="white"/>
  <rect x="122" y="108" width="150" height="22" rx="11" fill="#DCE6FF"/>
  <rect x="122" y="154" width="476" height="78" rx="22" fill="#F7F9FF"/>
  <rect x="144" y="178" width="188" height="12" rx="6" fill="#B9C8ED"/>
  <rect x="144" y="200" width="132" height="12" rx="6" fill="#CFDAF6"/>
  <rect x="122" y="254" width="224" height="136" rx="26" fill="url(#purple)"/>
  <rect x="368" y="254" width="230" height="136" rx="26" fill="#F7F9FF"/>
  <rect x="392" y="282" width="132" height="12" rx="6" fill="#BEC9E6"/>
  <rect x="392" y="308" width="174" height="12" rx="6" fill="#D1DAF1"/>
  <rect x="392" y="334" width="142" height="12" rx="6" fill="#D1DAF1"/>
  <circle cx="216" cy="318" r="26" fill="white" fill-opacity="0.24"/>
  <path d="M216 304V332" stroke="white" stroke-width="8" stroke-linecap="round"/>
  <path d="M202 318H230" stroke="white" stroke-width="8" stroke-linecap="round"/>
  <rect x="122" y="412" width="180" height="14" rx="7" fill="#D9E4FF"/>
  <rect x="316" y="412" width="134" height="14" rx="7" fill="#D9E4FF"/>
  <rect x="464" y="412" width="116" height="14" rx="7" fill="#D9E4FF"/>
</svg>
